<mxfile host="app.diagrams.net" agent="Mozilla/5.0 (Windows NT 10.0; Win64; x64) AppleWebKit/537.36 (KHTML, like Gecko) Chrome/131.0.0.0 Safari/537.36 Edg/131.0.0.0" version="26.0.4">
  <diagram name="Seite-1" id="-m-Xg4FfJf2FhzzhSDQt">
    <mxGraphModel dx="706" dy="783" grid="1" gridSize="10" guides="1" tooltips="1" connect="1" arrows="1" fold="1" page="1" pageScale="1" pageWidth="1169" pageHeight="1654" math="0" shadow="0">
      <root>
        <mxCell id="0" />
        <mxCell id="1" parent="0" />
        <mxCell id="6eMA68Wl9B5Ku-vzQHL6-1" value="Match" style="rounded=0;whiteSpace=wrap;html=1;" vertex="1" parent="1">
          <mxGeometry x="80" y="100" width="120" height="60" as="geometry" />
        </mxCell>
        <mxCell id="6eMA68Wl9B5Ku-vzQHL6-21" style="edgeStyle=orthogonalEdgeStyle;rounded=0;orthogonalLoop=1;jettySize=auto;html=1;exitX=0;exitY=0.5;exitDx=0;exitDy=0;" edge="1" parent="1" source="6eMA68Wl9B5Ku-vzQHL6-2">
          <mxGeometry relative="1" as="geometry">
            <mxPoint x="30" y="225" as="targetPoint" />
          </mxGeometry>
        </mxCell>
        <mxCell id="6eMA68Wl9B5Ku-vzQHL6-2" value="&amp;nbsp;matchID(PK)" style="ellipse;whiteSpace=wrap;html=1;" vertex="1" parent="1">
          <mxGeometry x="80" y="200" width="120" height="50" as="geometry" />
        </mxCell>
        <mxCell id="6eMA68Wl9B5Ku-vzQHL6-20" style="edgeStyle=orthogonalEdgeStyle;rounded=0;orthogonalLoop=1;jettySize=auto;html=1;exitX=0;exitY=0.5;exitDx=0;exitDy=0;" edge="1" parent="1" source="6eMA68Wl9B5Ku-vzQHL6-3">
          <mxGeometry relative="1" as="geometry">
            <mxPoint x="30" y="305" as="targetPoint" />
          </mxGeometry>
        </mxCell>
        <mxCell id="6eMA68Wl9B5Ku-vzQHL6-3" value="matchDateTime" style="ellipse;whiteSpace=wrap;html=1;" vertex="1" parent="1">
          <mxGeometry x="80" y="280" width="120" height="50" as="geometry" />
        </mxCell>
        <mxCell id="6eMA68Wl9B5Ku-vzQHL6-22" style="edgeStyle=orthogonalEdgeStyle;rounded=0;orthogonalLoop=1;jettySize=auto;html=1;exitX=0;exitY=0.5;exitDx=0;exitDy=0;" edge="1" parent="1" source="6eMA68Wl9B5Ku-vzQHL6-4">
          <mxGeometry relative="1" as="geometry">
            <mxPoint x="30" y="390" as="targetPoint" />
          </mxGeometry>
        </mxCell>
        <mxCell id="6eMA68Wl9B5Ku-vzQHL6-4" value="timeZoneID" style="ellipse;whiteSpace=wrap;html=1;" vertex="1" parent="1">
          <mxGeometry x="80" y="360" width="120" height="60" as="geometry" />
        </mxCell>
        <mxCell id="6eMA68Wl9B5Ku-vzQHL6-5" value="leagueID&lt;div&gt;&lt;br&gt;&lt;/div&gt;" style="ellipse;whiteSpace=wrap;html=1;" vertex="1" parent="1">
          <mxGeometry x="80" y="450" width="120" height="60" as="geometry" />
        </mxCell>
        <mxCell id="6eMA68Wl9B5Ku-vzQHL6-23" style="edgeStyle=orthogonalEdgeStyle;rounded=0;orthogonalLoop=1;jettySize=auto;html=1;" edge="1" parent="1" source="6eMA68Wl9B5Ku-vzQHL6-6">
          <mxGeometry relative="1" as="geometry">
            <mxPoint x="30" y="580" as="targetPoint" />
          </mxGeometry>
        </mxCell>
        <mxCell id="6eMA68Wl9B5Ku-vzQHL6-6" value="leagueName" style="ellipse;whiteSpace=wrap;html=1;" vertex="1" parent="1">
          <mxGeometry x="70" y="550" width="130" height="60" as="geometry" />
        </mxCell>
        <mxCell id="6eMA68Wl9B5Ku-vzQHL6-24" style="edgeStyle=orthogonalEdgeStyle;rounded=0;orthogonalLoop=1;jettySize=auto;html=1;" edge="1" parent="1" source="6eMA68Wl9B5Ku-vzQHL6-8">
          <mxGeometry relative="1" as="geometry">
            <mxPoint x="30" y="680" as="targetPoint" />
          </mxGeometry>
        </mxCell>
        <mxCell id="6eMA68Wl9B5Ku-vzQHL6-8" value="leagueSeason" style="ellipse;whiteSpace=wrap;html=1;" vertex="1" parent="1">
          <mxGeometry x="80" y="640" width="120" height="80" as="geometry" />
        </mxCell>
        <mxCell id="6eMA68Wl9B5Ku-vzQHL6-25" style="edgeStyle=orthogonalEdgeStyle;rounded=0;orthogonalLoop=1;jettySize=auto;html=1;" edge="1" parent="1" source="6eMA68Wl9B5Ku-vzQHL6-9">
          <mxGeometry relative="1" as="geometry">
            <mxPoint x="30" y="800" as="targetPoint" />
          </mxGeometry>
        </mxCell>
        <mxCell id="6eMA68Wl9B5Ku-vzQHL6-9" value="leagueShortcut" style="ellipse;whiteSpace=wrap;html=1;" vertex="1" parent="1">
          <mxGeometry x="80" y="760" width="120" height="80" as="geometry" />
        </mxCell>
        <mxCell id="6eMA68Wl9B5Ku-vzQHL6-11" value="" style="endArrow=none;html=1;rounded=0;entryX=0.017;entryY=0.367;entryDx=0;entryDy=0;entryPerimeter=0;" edge="1" parent="1" target="6eMA68Wl9B5Ku-vzQHL6-1">
          <mxGeometry width="50" height="50" relative="1" as="geometry">
            <mxPoint x="30" y="1050" as="sourcePoint" />
            <mxPoint x="80" y="130" as="targetPoint" />
            <Array as="points">
              <mxPoint x="30" y="122" />
            </Array>
          </mxGeometry>
        </mxCell>
        <mxCell id="6eMA68Wl9B5Ku-vzQHL6-26" style="edgeStyle=orthogonalEdgeStyle;rounded=0;orthogonalLoop=1;jettySize=auto;html=1;" edge="1" parent="1" source="6eMA68Wl9B5Ku-vzQHL6-12">
          <mxGeometry relative="1" as="geometry">
            <mxPoint x="30" y="920" as="targetPoint" />
          </mxGeometry>
        </mxCell>
        <mxCell id="6eMA68Wl9B5Ku-vzQHL6-12" value="matchDateTimeUTC" style="ellipse;whiteSpace=wrap;html=1;" vertex="1" parent="1">
          <mxGeometry x="80" y="880" width="120" height="80" as="geometry" />
        </mxCell>
        <mxCell id="6eMA68Wl9B5Ku-vzQHL6-27" style="edgeStyle=orthogonalEdgeStyle;rounded=0;orthogonalLoop=1;jettySize=auto;html=1;" edge="1" parent="1" source="6eMA68Wl9B5Ku-vzQHL6-13">
          <mxGeometry relative="1" as="geometry">
            <mxPoint x="30" y="1040" as="targetPoint" />
          </mxGeometry>
        </mxCell>
        <mxCell id="6eMA68Wl9B5Ku-vzQHL6-28" style="edgeStyle=orthogonalEdgeStyle;rounded=0;orthogonalLoop=1;jettySize=auto;html=1;" edge="1" parent="1" source="6eMA68Wl9B5Ku-vzQHL6-13">
          <mxGeometry relative="1" as="geometry">
            <mxPoint x="140" y="1280" as="targetPoint" />
          </mxGeometry>
        </mxCell>
        <mxCell id="6eMA68Wl9B5Ku-vzQHL6-13" value="group" style="ellipse;whiteSpace=wrap;html=1;" vertex="1" parent="1">
          <mxGeometry x="80" y="1000" width="120" height="80" as="geometry" />
        </mxCell>
        <mxCell id="6eMA68Wl9B5Ku-vzQHL6-29" style="edgeStyle=orthogonalEdgeStyle;rounded=0;orthogonalLoop=1;jettySize=auto;html=1;" edge="1" parent="1" source="6eMA68Wl9B5Ku-vzQHL6-14">
          <mxGeometry relative="1" as="geometry">
            <mxPoint x="140" y="1110" as="targetPoint" />
          </mxGeometry>
        </mxCell>
        <mxCell id="6eMA68Wl9B5Ku-vzQHL6-14" value="groupName" style="ellipse;whiteSpace=wrap;html=1;" vertex="1" parent="1">
          <mxGeometry x="220" y="1080" width="120" height="60" as="geometry" />
        </mxCell>
        <mxCell id="6eMA68Wl9B5Ku-vzQHL6-30" style="edgeStyle=orthogonalEdgeStyle;rounded=0;orthogonalLoop=1;jettySize=auto;html=1;" edge="1" parent="1" source="6eMA68Wl9B5Ku-vzQHL6-15">
          <mxGeometry relative="1" as="geometry">
            <mxPoint x="140" y="1190" as="targetPoint" />
          </mxGeometry>
        </mxCell>
        <mxCell id="6eMA68Wl9B5Ku-vzQHL6-15" value="groupOrderID" style="ellipse;whiteSpace=wrap;html=1;" vertex="1" parent="1">
          <mxGeometry x="220" y="1160" width="120" height="60" as="geometry" />
        </mxCell>
        <mxCell id="6eMA68Wl9B5Ku-vzQHL6-31" style="edgeStyle=orthogonalEdgeStyle;rounded=0;orthogonalLoop=1;jettySize=auto;html=1;" edge="1" parent="1" source="6eMA68Wl9B5Ku-vzQHL6-16">
          <mxGeometry relative="1" as="geometry">
            <mxPoint x="140" y="1270" as="targetPoint" />
          </mxGeometry>
        </mxCell>
        <mxCell id="6eMA68Wl9B5Ku-vzQHL6-16" value="groupID" style="ellipse;whiteSpace=wrap;html=1;" vertex="1" parent="1">
          <mxGeometry x="220" y="1240" width="120" height="60" as="geometry" />
        </mxCell>
        <mxCell id="6eMA68Wl9B5Ku-vzQHL6-17" value="" style="endArrow=none;html=1;rounded=0;" edge="1" parent="1">
          <mxGeometry width="50" height="50" relative="1" as="geometry">
            <mxPoint x="60" y="479.5" as="sourcePoint" />
            <mxPoint x="30" y="480" as="targetPoint" />
            <Array as="points">
              <mxPoint x="80" y="479.5" />
            </Array>
          </mxGeometry>
        </mxCell>
        <mxCell id="6eMA68Wl9B5Ku-vzQHL6-18" value="" style="endArrow=none;html=1;rounded=0;" edge="1" parent="1">
          <mxGeometry width="50" height="50" relative="1" as="geometry">
            <mxPoint x="40" y="389.5" as="sourcePoint" />
            <mxPoint x="80" y="390" as="targetPoint" />
            <Array as="points">
              <mxPoint x="70" y="389.5" />
            </Array>
          </mxGeometry>
        </mxCell>
        <mxCell id="6eMA68Wl9B5Ku-vzQHL6-64" style="edgeStyle=orthogonalEdgeStyle;rounded=0;orthogonalLoop=1;jettySize=auto;html=1;exitX=1;exitY=0.5;exitDx=0;exitDy=0;entryX=0;entryY=0.5;entryDx=0;entryDy=0;" edge="1" parent="1" source="6eMA68Wl9B5Ku-vzQHL6-32" target="6eMA68Wl9B5Ku-vzQHL6-63">
          <mxGeometry relative="1" as="geometry" />
        </mxCell>
        <mxCell id="6eMA68Wl9B5Ku-vzQHL6-32" value="team1" style="whiteSpace=wrap;html=1;align=center;" vertex="1" parent="1">
          <mxGeometry x="340" y="100" width="100" height="40" as="geometry" />
        </mxCell>
        <mxCell id="6eMA68Wl9B5Ku-vzQHL6-44" style="edgeStyle=orthogonalEdgeStyle;rounded=0;orthogonalLoop=1;jettySize=auto;html=1;" edge="1" parent="1" source="6eMA68Wl9B5Ku-vzQHL6-33">
          <mxGeometry relative="1" as="geometry">
            <mxPoint x="280" y="210" as="targetPoint" />
          </mxGeometry>
        </mxCell>
        <mxCell id="6eMA68Wl9B5Ku-vzQHL6-33" value="teamID(PK)" style="ellipse;whiteSpace=wrap;html=1;align=center;" vertex="1" parent="1">
          <mxGeometry x="340" y="190" width="100" height="40" as="geometry" />
        </mxCell>
        <mxCell id="6eMA68Wl9B5Ku-vzQHL6-34" value="TeamName" style="ellipse;whiteSpace=wrap;html=1;align=center;" vertex="1" parent="1">
          <mxGeometry x="340" y="280" width="100" height="40" as="geometry" />
        </mxCell>
        <mxCell id="6eMA68Wl9B5Ku-vzQHL6-46" style="edgeStyle=orthogonalEdgeStyle;rounded=0;orthogonalLoop=1;jettySize=auto;html=1;" edge="1" parent="1" source="6eMA68Wl9B5Ku-vzQHL6-35">
          <mxGeometry relative="1" as="geometry">
            <mxPoint x="280" y="380" as="targetPoint" />
          </mxGeometry>
        </mxCell>
        <mxCell id="6eMA68Wl9B5Ku-vzQHL6-35" value="shortName" style="ellipse;whiteSpace=wrap;html=1;align=center;" vertex="1" parent="1">
          <mxGeometry x="340" y="360" width="100" height="40" as="geometry" />
        </mxCell>
        <mxCell id="6eMA68Wl9B5Ku-vzQHL6-47" style="edgeStyle=orthogonalEdgeStyle;rounded=0;orthogonalLoop=1;jettySize=auto;html=1;" edge="1" parent="1" source="6eMA68Wl9B5Ku-vzQHL6-37">
          <mxGeometry relative="1" as="geometry">
            <mxPoint x="280" y="470" as="targetPoint" />
          </mxGeometry>
        </mxCell>
        <mxCell id="6eMA68Wl9B5Ku-vzQHL6-37" value="teamGroupName" style="ellipse;whiteSpace=wrap;html=1;align=center;" vertex="1" parent="1">
          <mxGeometry x="340" y="450" width="100" height="40" as="geometry" />
        </mxCell>
        <mxCell id="6eMA68Wl9B5Ku-vzQHL6-40" value="" style="endArrow=classic;html=1;rounded=0;exitX=0;exitY=0.5;exitDx=0;exitDy=0;" edge="1" parent="1" source="6eMA68Wl9B5Ku-vzQHL6-32">
          <mxGeometry width="50" height="50" relative="1" as="geometry">
            <mxPoint x="230" y="470" as="sourcePoint" />
            <mxPoint x="280" y="470" as="targetPoint" />
            <Array as="points">
              <mxPoint x="280" y="120" />
              <mxPoint x="280" y="290" />
              <mxPoint x="280" y="470" />
            </Array>
          </mxGeometry>
        </mxCell>
        <mxCell id="6eMA68Wl9B5Ku-vzQHL6-65" style="edgeStyle=orthogonalEdgeStyle;rounded=0;orthogonalLoop=1;jettySize=auto;html=1;exitX=0;exitY=0.5;exitDx=0;exitDy=0;" edge="1" parent="1" source="6eMA68Wl9B5Ku-vzQHL6-48">
          <mxGeometry relative="1" as="geometry">
            <mxPoint x="530" y="120" as="targetPoint" />
          </mxGeometry>
        </mxCell>
        <mxCell id="6eMA68Wl9B5Ku-vzQHL6-48" value="team2" style="whiteSpace=wrap;html=1;align=center;" vertex="1" parent="1">
          <mxGeometry x="570" y="100" width="100" height="40" as="geometry" />
        </mxCell>
        <mxCell id="6eMA68Wl9B5Ku-vzQHL6-49" value="" style="endArrow=classic;html=1;rounded=0;exitX=0;exitY=0.5;exitDx=0;exitDy=0;" edge="1" parent="1" source="6eMA68Wl9B5Ku-vzQHL6-48">
          <mxGeometry width="50" height="50" relative="1" as="geometry">
            <mxPoint x="350" y="360" as="sourcePoint" />
            <mxPoint x="530" y="480" as="targetPoint" />
            <Array as="points">
              <mxPoint x="530" y="120" />
            </Array>
          </mxGeometry>
        </mxCell>
        <mxCell id="6eMA68Wl9B5Ku-vzQHL6-57" style="edgeStyle=orthogonalEdgeStyle;rounded=0;orthogonalLoop=1;jettySize=auto;html=1;" edge="1" parent="1" source="6eMA68Wl9B5Ku-vzQHL6-50">
          <mxGeometry relative="1" as="geometry">
            <mxPoint x="530" y="210" as="targetPoint" />
          </mxGeometry>
        </mxCell>
        <mxCell id="6eMA68Wl9B5Ku-vzQHL6-50" value="teamID(PK)" style="ellipse;whiteSpace=wrap;html=1;align=center;" vertex="1" parent="1">
          <mxGeometry x="570" y="190" width="100" height="40" as="geometry" />
        </mxCell>
        <mxCell id="6eMA68Wl9B5Ku-vzQHL6-56" style="edgeStyle=orthogonalEdgeStyle;rounded=0;orthogonalLoop=1;jettySize=auto;html=1;" edge="1" parent="1" source="6eMA68Wl9B5Ku-vzQHL6-51">
          <mxGeometry relative="1" as="geometry">
            <mxPoint x="540" y="300" as="targetPoint" />
            <Array as="points">
              <mxPoint x="530" y="300" />
              <mxPoint x="530" y="300" />
            </Array>
          </mxGeometry>
        </mxCell>
        <mxCell id="6eMA68Wl9B5Ku-vzQHL6-51" value="teamName" style="ellipse;whiteSpace=wrap;html=1;align=center;" vertex="1" parent="1">
          <mxGeometry x="570" y="280" width="100" height="40" as="geometry" />
        </mxCell>
        <mxCell id="6eMA68Wl9B5Ku-vzQHL6-55" style="edgeStyle=orthogonalEdgeStyle;rounded=0;orthogonalLoop=1;jettySize=auto;html=1;" edge="1" parent="1" source="6eMA68Wl9B5Ku-vzQHL6-52">
          <mxGeometry relative="1" as="geometry">
            <mxPoint x="540" y="380" as="targetPoint" />
          </mxGeometry>
        </mxCell>
        <mxCell id="6eMA68Wl9B5Ku-vzQHL6-52" value="shortName" style="ellipse;whiteSpace=wrap;html=1;align=center;" vertex="1" parent="1">
          <mxGeometry x="570" y="360" width="100" height="40" as="geometry" />
        </mxCell>
        <mxCell id="6eMA68Wl9B5Ku-vzQHL6-54" style="edgeStyle=orthogonalEdgeStyle;rounded=0;orthogonalLoop=1;jettySize=auto;html=1;" edge="1" parent="1" source="6eMA68Wl9B5Ku-vzQHL6-53">
          <mxGeometry relative="1" as="geometry">
            <mxPoint x="530" y="470" as="targetPoint" />
          </mxGeometry>
        </mxCell>
        <mxCell id="6eMA68Wl9B5Ku-vzQHL6-53" value="TeamGroupName" style="ellipse;whiteSpace=wrap;html=1;align=center;" vertex="1" parent="1">
          <mxGeometry x="570" y="450" width="100" height="40" as="geometry" />
        </mxCell>
        <mxCell id="6eMA68Wl9B5Ku-vzQHL6-61" value="" style="endArrow=none;html=1;rounded=0;entryX=0;entryY=0.5;entryDx=0;entryDy=0;" edge="1" parent="1" target="6eMA68Wl9B5Ku-vzQHL6-34">
          <mxGeometry width="50" height="50" relative="1" as="geometry">
            <mxPoint x="280" y="300" as="sourcePoint" />
            <mxPoint x="400" y="310" as="targetPoint" />
          </mxGeometry>
        </mxCell>
        <mxCell id="6eMA68Wl9B5Ku-vzQHL6-63" value="spielt&lt;div&gt;gegen&lt;/div&gt;" style="shape=rhombus;perimeter=rhombusPerimeter;whiteSpace=wrap;html=1;align=center;" vertex="1" parent="1">
          <mxGeometry x="470" y="90" width="60" height="60" as="geometry" />
        </mxCell>
      </root>
    </mxGraphModel>
  </diagram>
</mxfile>
